{
	"asset":{
		"generator":"Khronos glTF Blender I/O v4.2.60",
		"version":"2.0"
	},
	"extensionsUsed":[
		"KHR_materials_specular",
		"KHR_materials_ior"
	],
	"scene":0,
	"scenes":[
		{
			"name":"Scene",
			"nodes":[
				2
			]
		}
	],
	"nodes":[
		{
			"mesh":0,
			"name":"Circle.011",
			"rotation":[
				0,
				-0.6385554075241089,
				0,
				0.769575834274292
			],
			"scale":[
				4.600116729736328,
				4.600115776062012,
				4.600116729736328
			],
			"translation":[
				0,
				3.465149164199829,
				0
			]
		},
		{
			"mesh":1,
			"name":"Plane.009",
			"rotation":[
				0,
				-0.6385554075241089,
				0,
				0.769575834274292
			],
			"scale":[
				4.600116729736328,
				4.600115776062012,
				4.600116729736328
			],
			"translation":[
				0,
				3.465149164199829,
				0
			]
		},
		{
			"children":[
				0,
				1
			],
			"mesh":2,
			"name":"Redbull can",
			"rotation":[
				0,
				0.6385554075241089,
				0,
				0.769575834274292
			],
			"scale":[
				0.29999998211860657,
				0.29999998211860657,
				0.29999998211860657
			],
			"translation":[
				0,
				0.0007748082280158997,
				0
			]
		}
	],
	"materials":[
		{
			"doubleSided":true,
			"extensions":{
				"KHR_materials_specular":{
					"specularColorFactor":[
						1.0945454835891724,
						1.0945454835891724,
						1.0945454835891724
					]
				},
				"KHR_materials_ior":{
					"ior":1.4500000476837158
				}
			},
			"name":"Material.038",
			"pbrMetallicRoughness":{
				"baseColorTexture":{
					"index":0
				},
				"metallicRoughnessTexture":{
					"index":1
				}
			}
		},
		{
			"doubleSided":true,
			"extensions":{
				"KHR_materials_specular":{
					"specularColorFactor":[
						1.0945454835891724,
						1.0945454835891724,
						1.0945454835891724
					]
				},
				"KHR_materials_ior":{
					"ior":1.4500000476837158
				}
			},
			"name":"Material.040",
			"pbrMetallicRoughness":{
				"baseColorTexture":{
					"index":2
				},
				"metallicRoughnessTexture":{
					"index":3
				}
			}
		},
		{
			"doubleSided":true,
			"name":"EDGE",
			"pbrMetallicRoughness":{
				"baseColorFactor":[
					0.37885379791259766,
					0.3533390760421753,
					0.3804371654987335,
					1
				]
			}
		},
		{
			"doubleSided":true,
			"extensions":{
				"KHR_materials_specular":{
					"specularFactor":0,
					"specularColorTexture":{
						"index":4
					}
				},
				"KHR_materials_ior":{
					"ior":1.4500000476837158
				}
			},
			"name":"REDBULL",
			"pbrMetallicRoughness":{
				"baseColorTexture":{
					"index":5
				},
				"roughnessFactor":0.2709091007709503
			}
		},
		{
			"doubleSided":true,
			"name":"egde2bleow",
			"pbrMetallicRoughness":{
				"baseColorFactor":[
					0.37885379791259766,
					0.3533390760421753,
					0.3804371654987335,
					1
				]
			}
		}
	],
	"meshes":[
		{
			"name":"Circle.017",
			"primitives":[
				{
					"attributes":{
						"POSITION":0,
						"NORMAL":1,
						"TEXCOORD_0":2
					},
					"indices":3,
					"material":0
				}
			]
		},
		{
			"name":"Plane.009",
			"primitives":[
				{
					"attributes":{
						"POSITION":4,
						"NORMAL":5,
						"TEXCOORD_0":6
					},
					"indices":7,
					"material":1
				}
			]
		},
		{
			"name":"Circle.016",
			"primitives":[
				{
					"attributes":{
						"POSITION":8,
						"NORMAL":9,
						"TEXCOORD_0":10
					},
					"indices":11,
					"material":2
				},
				{
					"attributes":{
						"POSITION":12,
						"NORMAL":13,
						"TEXCOORD_0":14
					},
					"indices":15,
					"material":3
				},
				{
					"attributes":{
						"POSITION":16,
						"NORMAL":17,
						"TEXCOORD_0":18
					},
					"indices":19,
					"material":4
				}
			]
		}
	],
	"textures":[
		{
			"sampler":0,
			"source":0
		},
		{
			"sampler":0,
			"source":1
		},
		{
			"sampler":0,
			"source":2
		},
		{
			"sampler":0,
			"source":3
		},
		{
			"sampler":0,
			"source":4
		},
		{
			"sampler":0,
			"source":4
		}
	],
	"images":[
		{
			"mimeType":"image/jpeg",
			"name":"images000",
			"uri":"images000.jpg"
		},
		{
			"mimeType":"image/png",
			"name":"images000",
			"uri":"images000.png"
		},
		{
			"mimeType":"image/jpeg",
			"name":"images",
			"uri":"images.jpg"
		},
		{
			"mimeType":"image/png",
			"name":"images",
			"uri":"images.png"
		},
		{
			"mimeType":"image/jpeg",
			"name":"d2hzvoq-237662dd-a771-408e-85e1-d04833d26401",
			"uri":"d2hzvoq-237662dd-a771-408e-85e1-d04833d26401.jpg"
		}
	],
	"accessors":[
		{
			"bufferView":0,
			"componentType":5126,
			"count":932,
			"max":[
				0.2407408207654953,
				0.7064900398254395,
				0.24455271661281586
			],
			"min":[
				-0.24817952513694763,
				0.6727384924888611,
				-0.2446407675743103
			],
			"type":"VEC3"
		},
		{
			"bufferView":1,
			"componentType":5126,
			"count":932,
			"type":"VEC3"
		},
		{
			"bufferView":2,
			"componentType":5126,
			"count":932,
			"type":"VEC2"
		},
		{
			"bufferView":3,
			"componentType":5123,
			"count":5580,
			"type":"SCALAR"
		},
		{
			"bufferView":4,
			"componentType":5126,
			"count":494,
			"max":[
				0.06873617321252823,
				0.7072798609733582,
				0.07603535056114197
			],
			"min":[
				-0.09525340795516968,
				0.7014034986495972,
				-0.1830241084098816
			],
			"type":"VEC3"
		},
		{
			"bufferView":5,
			"componentType":5126,
			"count":494,
			"type":"VEC3"
		},
		{
			"bufferView":6,
			"componentType":5126,
			"count":494,
			"type":"VEC2"
		},
		{
			"bufferView":7,
			"componentType":5123,
			"count":1164,
			"type":"SCALAR"
		},
		{
			"bufferView":8,
			"componentType":5126,
			"count":188,
			"max":[
				1.157831072807312,
				6.852811813354492,
				1.1597744226455688
			],
			"min":[
				-1.160422444343567,
				6.695265769958496,
				-1.1597744226455688
			],
			"type":"VEC3"
		},
		{
			"bufferView":9,
			"componentType":5126,
			"count":188,
			"type":"VEC3"
		},
		{
			"bufferView":10,
			"componentType":5126,
			"count":188,
			"type":"VEC2"
		},
		{
			"bufferView":11,
			"componentType":5123,
			"count":846,
			"type":"SCALAR"
		},
		{
			"bufferView":12,
			"componentType":5126,
			"count":720,
			"max":[
				1.2446399927139282,
				6.695265769958496,
				1.2467288970947266
			],
			"min":[
				-1.2474255561828613,
				0.3169352412223816,
				-1.2467288970947266
			],
			"type":"VEC3"
		},
		{
			"bufferView":13,
			"componentType":5126,
			"count":720,
			"type":"VEC3"
		},
		{
			"bufferView":14,
			"componentType":5126,
			"count":720,
			"type":"VEC2"
		},
		{
			"bufferView":15,
			"componentType":5123,
			"count":3948,
			"type":"SCALAR"
		},
		{
			"bufferView":16,
			"componentType":5126,
			"count":517,
			"max":[
				1.2446399927139282,
				0.3169352412223816,
				1.2467288970947266
			],
			"min":[
				-1.2474255561828613,
				-0.03656958416104317,
				-1.2467288970947266
			],
			"type":"VEC3"
		},
		{
			"bufferView":17,
			"componentType":5126,
			"count":517,
			"type":"VEC3"
		},
		{
			"bufferView":18,
			"componentType":5126,
			"count":517,
			"type":"VEC2"
		},
		{
			"bufferView":19,
			"componentType":5123,
			"count":2820,
			"type":"SCALAR"
		}
	],
	"bufferViews":[
		{
			"buffer":0,
			"byteLength":11184,
			"byteOffset":0,
			"target":34962
		},
		{
			"buffer":0,
			"byteLength":11184,
			"byteOffset":11184,
			"target":34962
		},
		{
			"buffer":0,
			"byteLength":7456,
			"byteOffset":22368,
			"target":34962
		},
		{
			"buffer":0,
			"byteLength":11160,
			"byteOffset":29824,
			"target":34963
		},
		{
			"buffer":0,
			"byteLength":5928,
			"byteOffset":40984,
			"target":34962
		},
		{
			"buffer":0,
			"byteLength":5928,
			"byteOffset":46912,
			"target":34962
		},
		{
			"buffer":0,
			"byteLength":3952,
			"byteOffset":52840,
			"target":34962
		},
		{
			"buffer":0,
			"byteLength":2328,
			"byteOffset":56792,
			"target":34963
		},
		{
			"buffer":0,
			"byteLength":2256,
			"byteOffset":59120,
			"target":34962
		},
		{
			"buffer":0,
			"byteLength":2256,
			"byteOffset":61376,
			"target":34962
		},
		{
			"buffer":0,
			"byteLength":1504,
			"byteOffset":63632,
			"target":34962
		},
		{
			"buffer":0,
			"byteLength":1692,
			"byteOffset":65136,
			"target":34963
		},
		{
			"buffer":0,
			"byteLength":8640,
			"byteOffset":66828,
			"target":34962
		},
		{
			"buffer":0,
			"byteLength":8640,
			"byteOffset":75468,
			"target":34962
		},
		{
			"buffer":0,
			"byteLength":5760,
			"byteOffset":84108,
			"target":34962
		},
		{
			"buffer":0,
			"byteLength":7896,
			"byteOffset":89868,
			"target":34963
		},
		{
			"buffer":0,
			"byteLength":6204,
			"byteOffset":97764,
			"target":34962
		},
		{
			"buffer":0,
			"byteLength":6204,
			"byteOffset":103968,
			"target":34962
		},
		{
			"buffer":0,
			"byteLength":4136,
			"byteOffset":110172,
			"target":34962
		},
		{
			"buffer":0,
			"byteLength":5640,
			"byteOffset":114308,
			"target":34963
		}
	],
	"samplers":[
		{
			"magFilter":9729,
			"minFilter":9987
		}
	],
	"buffers":[
		{
			"byteLength":119948,
			"uri":"rb.bin"
		}
	]
}
